# xmcd
#
# Track frame offsets:
#	150
#	15163
#	28965
#	43545
#	57555
#	65389
#	84071
#	95937
#	131210
#	143776
#	157214
#	173316
#	179389
#	191461
#	204722
#	219917
#	245135
#	261690
#	276613
#	301290
#	321467
#	338539
#
# Disc length: 4564 seconds
# Revision: 0
# Processed by: cddbd v1.5.2PL0 Copyright (c) Steve Scherf et al.
# Submitted via: dBpowerAMP V12.0
#
DISCID=5011d216
DTITLE=Various Artist - The very best of the blues brothers
DYEAR=1995
DGENRE=Blues Rock
TTITLE0=The blues brothers - Everybody needs somebody to love
TTITLE1=The blues brothers - Gimme some lovin'
TTITLE2=The blues brothers ft Aretha Franklin - Think
TTITLE3=The blues brothers - Soul man
TTITLE4=The blues brothers - Soul finger [incl "Funky Broadway"]
TTITLE5=The blues brothers - She caught the Katy
TTITLE6=The blues brothers - Theme from Rawhide
TTITLE7=The blues brothers - Sweet home Chicago
TTITLE8=The blues brothers ft Ray Charles - Shake your tailfeather
TTITLE9=The blues brothers - Hey bartender
TTITLE10=The blues brothers - Messin' with the kid
TTITLE11=The blues brothers - Opening: I can't turn you loose
TTITLE12=The blues brothers - [I got everything i need] Almost
TTITLE13=The blues brothers ft James Brown - The old landmark
TTITLE14=The blues brothers ft Cab Calloway - Minnie the moocher
TTITLE15=The blues brothers - Green onions
TTITLE16=The blues brothers - Guilty
TTITLE17=The blues brothers - Riot in cell block number nine
TTITLE18=The blues brothers - Shotgun blues
TTITLE19=The blues brothers - "B" movie box car blues
TTITLE20=The blues brothers - Peter Gunn theme
TTITLE21=The blues brothers - Closing: I can't turn you loose
EXTD=
EXTT0=
EXTT1=
EXTT2=
EXTT3=
EXTT4=
EXTT5=
EXTT6=
EXTT7=
EXTT8=
EXTT9=
EXTT10=
EXTT11=
EXTT12=
EXTT13=
EXTT14=
EXTT15=
EXTT16=
EXTT17=
EXTT18=
EXTT19=
EXTT20=
EXTT21=
PLAYORDER=
